<svg width="3.92cm" height="3.92cm" viewBox="0 0 37 37" preserveAspectRatio="none" xmlns="http://www.w3.org/2000/svg">
    <path fill="#fff" d="M0 0h37v37H0z"/>
    <path d="M4 4h1v1H4zM5 4h1v1H5zM6 4h1v1H6zM7 4h1v1H7zM8 4h1v1H8zM9 4h1v1H9zM10 4h1v1h-1zM14 4h1v1h-1zM16 4h1v1h-1zM19 4h1v1h-1zM20 4h1v1h-1zM23 4h1v1h-1zM24 4h1v1h-1zM26 4h1v1h-1zM27 4h1v1h-1zM28 4h1v1h-1zM29 4h1v1h-1zM30 4h1v1h-1zM31 4h1v1h-1zM32 4h1v1h-1zM4 5h1v1H4zM10 5h1v1h-1zM12 5h1v1h-1zM14 5h1v1h-1zM18 5h1v1h-1zM19 5h1v1h-1zM20 5h1v1h-1zM22 5h1v1h-1zM26 5h1v1h-1zM32 5h1v1h-1zM4 6h1v1H4zM6 6h1v1H6zM7 6h1v1H7zM8 6h1v1H8zM10 6h1v1h-1zM16 6h1v1h-1zM18 6h1v1h-1zM20 6h1v1h-1zM22 6h1v1h-1zM23 6h1v1h-1zM24 6h1v1h-1zM26 6h1v1h-1zM28 6h1v1h-1zM29 6h1v1h-1zM30 6h1v1h-1zM32 6h1v1h-1zM4 7h1v1H4zM6 7h1v1H6zM7 7h1v1H7zM8 7h1v1H8zM10 7h1v1h-1zM12 7h1v1h-1zM13 7h1v1h-1zM14 7h1v1h-1zM16 7h1v1h-1zM18 7h1v1h-1zM19 7h1v1h-1zM20 7h1v1h-1zM24 7h1v1h-1zM26 7h1v1h-1zM28 7h1v1h-1zM29 7h1v1h-1zM30 7h1v1h-1zM32 7h1v1h-1zM4 8h1v1H4zM6 8h1v1H6zM7 8h1v1H7zM8 8h1v1H8zM10 8h1v1h-1zM13 8h1v1h-1zM19 8h1v1h-1zM20 8h1v1h-1zM21 8h1v1h-1zM24 8h1v1h-1zM26 8h1v1h-1zM28 8h1v1h-1zM29 8h1v1h-1zM30 8h1v1h-1zM32 8h1v1h-1zM4 9h1v1H4zM10 9h1v1h-1zM12 9h1v1h-1zM13 9h1v1h-1zM15 9h1v1h-1zM16 9h1v1h-1zM17 9h1v1h-1zM19 9h1v1h-1zM22 9h1v1h-1zM26 9h1v1h-1zM32 9h1v1h-1zM4 10h1v1H4zM5 10h1v1H5zM6 10h1v1H6zM7 10h1v1H7zM8 10h1v1H8zM9 10h1v1H9zM10 10h1v1h-1zM12 10h1v1h-1zM14 10h1v1h-1zM16 10h1v1h-1zM18 10h1v1h-1zM20 10h1v1h-1zM22 10h1v1h-1zM24 10h1v1h-1zM26 10h1v1h-1zM27 10h1v1h-1zM28 10h1v1h-1zM29 10h1v1h-1zM30 10h1v1h-1zM31 10h1v1h-1zM32 10h1v1h-1zM13 11h1v1h-1zM14 11h1v1h-1zM15 11h1v1h-1zM4 12h1v1H4zM5 12h1v1H5zM6 12h1v1H6zM7 12h1v1H7zM8 12h1v1H8zM10 12h1v1h-1zM11 12h1v1h-1zM12 12h1v1h-1zM13 12h1v1h-1zM15 12h1v1h-1zM17 12h1v1h-1zM18 12h1v1h-1zM19 12h1v1h-1zM20 12h1v1h-1zM23 12h1v1h-1zM24 12h1v1h-1zM25 12h1v1h-1zM27 12h1v1h-1zM29 12h1v1h-1zM31 12h1v1h-1zM5 13h1v1H5zM6 13h1v1H6zM8 13h1v1H8zM12 13h1v1h-1zM14 13h1v1h-1zM16 13h1v1h-1zM22 13h1v1h-1zM23 13h1v1h-1zM24 13h1v1h-1zM25 13h1v1h-1zM26 13h1v1h-1zM27 13h1v1h-1zM28 13h1v1h-1zM31 13h1v1h-1zM32 13h1v1h-1zM5 14h1v1H5zM8 14h1v1H8zM10 14h1v1h-1zM14 14h1v1h-1zM17 14h1v1h-1zM19 14h1v1h-1zM24 14h1v1h-1zM26 14h1v1h-1zM28 14h1v1h-1zM29 14h1v1h-1zM30 14h1v1h-1zM5 15h1v1H5zM7 15h1v1H7zM16 15h1v1h-1zM20 15h1v1h-1zM22 15h1v1h-1zM23 15h1v1h-1zM24 15h1v1h-1zM25 15h1v1h-1zM26 15h1v1h-1zM29 15h1v1h-1zM31 15h1v1h-1zM4 16h1v1H4zM8 16h1v1H8zM10 16h1v1h-1zM12 16h1v1h-1zM13 16h1v1h-1zM14 16h1v1h-1zM16 16h1v1h-1zM17 16h1v1h-1zM18 16h1v1h-1zM19 16h1v1h-1zM21 16h1v1h-1zM22 16h1v1h-1zM28 16h1v1h-1zM30 16h1v1h-1zM8 17h1v1H8zM9 17h1v1H9zM11 17h1v1h-1zM12 17h1v1h-1zM19 17h1v1h-1zM20 17h1v1h-1zM24 17h1v1h-1zM25 17h1v1h-1zM26 17h1v1h-1zM27 17h1v1h-1zM28 17h1v1h-1zM29 17h1v1h-1zM30 17h1v1h-1zM32 17h1v1h-1zM5 18h1v1H5zM8 18h1v1H8zM10 18h1v1h-1zM11 18h1v1h-1zM12 18h1v1h-1zM13 18h1v1h-1zM15 18h1v1h-1zM16 18h1v1h-1zM17 18h1v1h-1zM18 18h1v1h-1zM19 18h1v1h-1zM22 18h1v1h-1zM24 18h1v1h-1zM28 18h1v1h-1zM29 18h1v1h-1zM30 18h1v1h-1zM4 19h1v1H4zM5 19h1v1H5zM8 19h1v1H8zM9 19h1v1H9zM14 19h1v1h-1zM15 19h1v1h-1zM20 19h1v1h-1zM27 19h1v1h-1zM28 19h1v1h-1zM29 19h1v1h-1zM7 20h1v1H7zM8 20h1v1H8zM10 20h1v1h-1zM11 20h1v1h-1zM14 20h1v1h-1zM15 20h1v1h-1zM18 20h1v1h-1zM21 20h1v1h-1zM22 20h1v1h-1zM23 20h1v1h-1zM24 20h1v1h-1zM25 20h1v1h-1zM30 20h1v1h-1zM31 20h1v1h-1zM32 20h1v1h-1zM4 21h1v1H4zM6 21h1v1H6zM8 21h1v1H8zM9 21h1v1H9zM11 21h1v1h-1zM13 21h1v1h-1zM16 21h1v1h-1zM17 21h1v1h-1zM19 21h1v1h-1zM20 21h1v1h-1zM23 21h1v1h-1zM26 21h1v1h-1zM27 21h1v1h-1zM28 21h1v1h-1zM30 21h1v1h-1zM31 21h1v1h-1zM32 21h1v1h-1zM4 22h1v1H4zM6 22h1v1H6zM8 22h1v1H8zM10 22h1v1h-1zM11 22h1v1h-1zM12 22h1v1h-1zM13 22h1v1h-1zM14 22h1v1h-1zM17 22h1v1h-1zM19 22h1v1h-1zM20 22h1v1h-1zM21 22h1v1h-1zM22 22h1v1h-1zM24 22h1v1h-1zM27 22h1v1h-1zM28 22h1v1h-1zM29 22h1v1h-1zM4 23h1v1H4zM6 23h1v1H6zM9 23h1v1H9zM12 23h1v1h-1zM13 23h1v1h-1zM16 23h1v1h-1zM18 23h1v1h-1zM28 23h1v1h-1zM29 23h1v1h-1zM31 23h1v1h-1zM32 23h1v1h-1zM4 24h1v1H4zM7 24h1v1H7zM8 24h1v1H8zM10 24h1v1h-1zM13 24h1v1h-1zM16 24h1v1h-1zM17 24h1v1h-1zM18 24h1v1h-1zM23 24h1v1h-1zM24 24h1v1h-1zM25 24h1v1h-1zM26 24h1v1h-1zM27 24h1v1h-1zM28 24h1v1h-1zM30 24h1v1h-1zM31 24h1v1h-1zM12 25h1v1h-1zM13 25h1v1h-1zM20 25h1v1h-1zM21 25h1v1h-1zM22 25h1v1h-1zM23 25h1v1h-1zM24 25h1v1h-1zM28 25h1v1h-1zM29 25h1v1h-1zM30 25h1v1h-1zM31 25h1v1h-1zM32 25h1v1h-1zM4 26h1v1H4zM5 26h1v1H5zM6 26h1v1H6zM7 26h1v1H7zM8 26h1v1H8zM9 26h1v1H9zM10 26h1v1h-1zM12 26h1v1h-1zM13 26h1v1h-1zM15 26h1v1h-1zM16 26h1v1h-1zM17 26h1v1h-1zM18 26h1v1h-1zM19 26h1v1h-1zM21 26h1v1h-1zM22 26h1v1h-1zM24 26h1v1h-1zM26 26h1v1h-1zM28 26h1v1h-1zM30 26h1v1h-1zM4 27h1v1H4zM10 27h1v1h-1zM13 27h1v1h-1zM15 27h1v1h-1zM19 27h1v1h-1zM23 27h1v1h-1zM24 27h1v1h-1zM28 27h1v1h-1zM31 27h1v1h-1zM32 27h1v1h-1zM4 28h1v1H4zM6 28h1v1H6zM7 28h1v1H7zM8 28h1v1H8zM10 28h1v1h-1zM12 28h1v1h-1zM14 28h1v1h-1zM15 28h1v1h-1zM21 28h1v1h-1zM24 28h1v1h-1zM25 28h1v1h-1zM26 28h1v1h-1zM27 28h1v1h-1zM28 28h1v1h-1zM29 28h1v1h-1zM30 28h1v1h-1zM31 28h1v1h-1zM32 28h1v1h-1zM4 29h1v1H4zM6 29h1v1H6zM7 29h1v1H7zM8 29h1v1H8zM10 29h1v1h-1zM12 29h1v1h-1zM13 29h1v1h-1zM16 29h1v1h-1zM17 29h1v1h-1zM20 29h1v1h-1zM21 29h1v1h-1zM22 29h1v1h-1zM24 29h1v1h-1zM28 29h1v1h-1zM30 29h1v1h-1zM31 29h1v1h-1zM32 29h1v1h-1zM4 30h1v1H4zM6 30h1v1H6zM7 30h1v1H7zM8 30h1v1H8zM10 30h1v1h-1zM12 30h1v1h-1zM17 30h1v1h-1zM18 30h1v1h-1zM19 30h1v1h-1zM22 30h1v1h-1zM25 30h1v1h-1zM27 30h1v1h-1zM28 30h1v1h-1zM30 30h1v1h-1zM31 30h1v1h-1zM4 31h1v1H4zM10 31h1v1h-1zM12 31h1v1h-1zM13 31h1v1h-1zM14 31h1v1h-1zM16 31h1v1h-1zM17 31h1v1h-1zM19 31h1v1h-1zM20 31h1v1h-1zM23 31h1v1h-1zM25 31h1v1h-1zM26 31h1v1h-1zM27 31h1v1h-1zM28 31h1v1h-1zM31 31h1v1h-1zM4 32h1v1H4zM5 32h1v1H5zM6 32h1v1H6zM7 32h1v1H7zM8 32h1v1H8zM9 32h1v1H9zM10 32h1v1h-1zM12 32h1v1h-1zM16 32h1v1h-1zM18 32h1v1h-1zM19 32h1v1h-1zM20 32h1v1h-1zM21 32h1v1h-1zM23 32h1v1h-1zM25 32h1v1h-1zM26 32h1v1h-1zM28 32h1v1h-1zM29 32h1v1h-1zM30 32h1v1h-1z"/>
</svg>
