<svg version="1.1" viewBox="0 0 14 14" xmlns="http://www.w3.org/2000/svg">
<rect width="14" height="14" rx=".5" ry=".5" fill="#FF5722"/>
<g fill="#ececec">
<path d="m9.3814 2.2373-1.4289 1.4289 3.3339 3.3339-3.3339 3.3339 1.4289 1.4289 4.2865-4.7627zm-4.7627 0l-4.2865 4.7627 4.2865 4.7627 1.4289-1.4289-3.3339-3.3339 3.3339-3.3339z" stroke-width="1.1588"/>
<g transform="matrix(.27043 0 0 .27043 4.8366 4.353)">
<path d="m10.555 8.094c-0.706 0.623-1.54 0.906-2.555 0.906-1.016 0-1.853-0.29-2.559-0.914-1.109 0.363-2.436 1.288-2.437 2.902l-4e-3 3.012c0 0.554 0.446 1 1 1h8c0.554 0 1-0.446 1-1v-3c0-1.387-1.102-2.556-2.445-2.906z"/>
<path d="m11 5a3 3 0 1 1 -6 0 3 3 0 1 1 6 0z"/>
</g>
</g>
</svg>
