<?xml version="1.0" encoding="utf-8"?>
<svg xmlns="http://www.w3.org/2000/svg">
<symbol id="mark-github" viewBox="0 0 16 16"><path fill-rule="evenodd" d="M8 0C3.58 0 0 3.58 0 8c0 3.54 2.29 6.53 5.47 7.59.4.07.55-.17.55-.38 0-.19-.01-.82-.01-1.49-2.01.37-2.53-.49-2.69-.94-.09-.23-.48-.94-.82-1.13-.28-.15-.68-.52-.01-.53.63-.01 1.08.58 1.23.82.72 1.21 1.87.87 2.33.66.07-.52.28-.87.51-1.07-1.78-.2-3.64-.89-3.64-3.95 0-.87.31-1.59.82-2.15-.08-.2-.36-1.02.08-2.12 0 0 .67-.21 2.2.82.64-.18 1.32-.27 2-.27.68 0 1.36.09 2 .27 1.53-1.04 2.2-.82 2.2-.82.44 1.1.16 1.92.08 2.12.51.56.82 1.27.82 2.15 0 3.07-1.87 3.75-3.65 3.95.29.25.54.73.54 1.48 0 1.07-.01 1.93-.01 2.2 0 .21.15.46.55.38A8.013 8.013 0 0 0 16 8c0-4.42-3.58-8-8-8z"/>
</symbol>
<symbol id="repo" viewBox="0 0 12 16"><path fill-rule="evenodd" d="M4 9H3V8h1v1zm0-3H3v1h1V6zm0-2H3v1h1V4zm0-2H3v1h1V2zm8-1v12c0 .55-.45 1-1 1H6v2l-1.5-1.5L3 16v-2H1c-.55 0-1-.45-1-1V1c0-.55.45-1 1-1h10c.55 0 1 .45 1 1zm-1 10H1v2h2v-1h3v1h5v-2zm0-10H2v9h9V1z"/>
</symbol>
<symbol id="issue-opened" viewBox="0 0 14 16"><path fill-rule="evenodd" d="M7 2.3c3.14 0 5.7 2.56 5.7 5.7s-2.56 5.7-5.7 5.7A5.71 5.71 0 0 1 1.3 8c0-3.14 2.56-5.7 5.7-5.7zM7 1C3.14 1 0 4.14 0 8s3.14 7 7 7 7-3.14 7-7-3.14-7-7-7zm1 3H6v5h2V4zm0 6H6v2h2v-2z"/>
</symbol>
<symbol id="linkedin" viewBox="0 0 64 64">
    <path fill="#fff" d="M10.305 11.119h43.119v42.847H10.305z"/>
    <path d="M12.8 51.2V24.384h8.192V51.2H12.8m8.448-34.24c.064 2.304-1.664 4.16-4.416 4.16-2.56 0-4.224-1.856-4.224-4.16 0-2.368 1.728-4.16 4.352-4.16s4.288 1.792 4.288 4.16M42.752 51.2V36.352c0-3.456-1.152-5.824-4.16-5.824-2.24 0-3.584 1.6-4.224 3.136-.192.576-.256 1.344-.256 2.112V51.2H25.92V32.96c0-3.328-.128-6.144-.192-8.576h7.104l.384 3.776h.128c1.088-1.792 3.776-4.352 8.192-4.352 5.376 0 9.472 3.648 9.472 11.584V51.2h-8.256M64 5.632C64 2.56 61.44 0 58.368 0H5.632C2.56 0 0 2.56 0 5.632v52.736C0 61.44 2.56 64 5.632 64h52.736C61.44 64 64 61.44 64 58.368V5.632" fill="#1d87bd"/>

</symbol>
<symbol id="facebook" viewBox="0 0 266.893 266.895">
    <path d="M248.08 262.31c7.854 0 14.223-6.37 14.223-14.225V18.815c0-7.857-6.368-14.224-14.223-14.224H18.81c-7.857 0-14.224 6.368-14.224 14.225v229.27c0 7.855 6.366 14.225 14.224 14.225h229.27z" fill="#3C5A99"/>
    <path d="M182.41 262.31v-99.803h33.5l5.015-38.895H182.41V98.77c0-11.262 3.127-18.936 19.275-18.936l20.596-.01V45.038c-3.56-.474-15.787-1.533-30.01-1.533-29.696 0-50.026 18.126-50.026 51.413V123.6H108.66v38.896h33.584V262.3h40.15z" fill="#FFF"/>

</symbol>
<symbol id="twitter" viewBox="0 0 341.7375 277.725">
    <path fill="#6babe1" d="M107.475 277.72C67.88 277.72 31.03 266.113 0 246.22c5.485.65 11.066.98 16.725.98 32.847 0 63.08-11.21 87.074-30.013-30.68-.566-56.574-20.836-65.495-48.69a70.083 70.083 0 0 0 13.19 1.256c6.395 0 12.59-.856 18.473-2.458-32.074-6.44-56.242-34.778-56.242-68.748 0-.296 0-.588.006-.88a69.83 69.83 0 0 0 31.756 8.768c-18.812-12.573-31.19-34.033-31.19-58.356 0-12.85 3.457-24.894 9.492-35.25 34.58 42.42 86.24 70.33 144.512 73.255a70.387 70.387 0 0 1-1.816-15.978c0-38.718 31.393-70.11 70.114-70.11 20.165 0 38.386 8.515 51.176 22.142a140.382 140.382 0 0 0 44.52-17.016c-5.233 16.372-16.35 30.112-30.826 38.79 14.182-1.695 27.695-5.464 40.27-11.04-9.4 14.06-21.29 26.408-34.986 36.293.135 3.007.202 6.03.202 9.07 0 92.65-70.52 199.488-199.475 199.488"/>

</symbol>
<symbol id="google+" viewBox="0 0 134.658 131.646">
    <path fill="#DC4A38" d="M126.52 4.11H8.14A3.938 3.938 0 0 0 4.2 8.046v115.55a3.94 3.94 0 0 0 3.94 3.942h118.37a3.94 3.94 0 0 0 3.94-3.943V8.057c0-2.176-1.77-3.94-3.94-3.94z"/>
    <path fill="#FFF" d="M70.48 71.845l-3.984-3.093c-1.213-1.006-2.872-2.334-2.872-4.765 0-2.44 1.66-3.993 3.1-5.43 4.64-3.652 9.275-7.54 9.275-15.73 0-8.423-5.3-12.854-7.84-14.956h6.848l7.19-4.516h-21.78c-5.976 0-14.588 1.414-20.893 6.62-4.752 4.1-7.07 9.752-7.07 14.84 0 8.64 6.633 17.397 18.346 17.397 1.107 0 2.317-.108 3.535-.22-.547 1.33-1.1 2.438-1.1 4.32 0 3.43 1.763 5.534 3.317 7.527-4.977.342-14.268.893-21.117 5.103-6.523 3.88-8.508 9.525-8.508 13.51 0 8.202 7.73 15.842 23.762 15.842 19.01 0 29.073-10.52 29.073-20.932 0-7.65-4.42-11.415-9.284-15.513zM56 59.107c-9.51 0-13.818-12.294-13.818-19.712 0-2.888.547-5.87 2.428-8.2 1.773-2.217 4.86-3.656 7.744-3.656 9.168 0 13.923 12.403 13.923 20.38 0 1.997-.22 5.534-2.762 8.09-1.778 1.775-4.753 3.097-7.515 3.097zm.11 44.543c-11.827 0-19.453-5.657-19.453-13.523 0-7.864 7.07-10.524 9.504-11.405 4.64-1.56 10.612-1.78 11.608-1.78 1.105 0 1.658 0 2.538.112 8.407 5.983 12.056 8.965 12.056 14.63 0 6.858-5.64 11.966-16.253 11.966zm42.283-44.712V47.863h-5.47v11.075H81.866v5.53h11.057v11.144h5.47V64.47h11.117v-5.532z"/>

</symbol>
<symbol id="youtube" viewBox="0 0 256 180">
	<path d="m101.6 123.2l69.2-35.8-69.2-36.1v71.9z" fill="#FFF"/>
	<path opacity=".12" d="m101.6 51.3l60.7 40.5 8.5-4.4-69.2-36.1z" fill="#420000"/>
	<path fill="#bf171d" d="m253.3 38.8c-1.88-13.981-8.42-29.299-23.02-33.835-16.05-4.2161-32.96-2.9887-49.4-4.1201-49.07-1.2709-98.277-1.4605-147.24 2.2613-14.07 1.1629-26.069 12.107-28.842 25.919-4.7102 19.159-4.5895 39.155-4.798 58.786.044311 20.409-.026870 41.079 4.26 61.099 2.4268 13.2 12.368 24.88 26.024 26.94 27.447 4.096 55.358 3.0724 83.032 3.9746 36.322.27585 72.726-.11654 108.94-3.0267 14.925-1.1556 26.962-13.363 29.48-27.882 5.0811-24.421 4.2467-49.587 4.1702-74.419-.32-11.935-1.22-23.848-2.6-35.7zm-151.74 84.4v-71.9l69.172 36.1-69.172 35.8z"/>

</symbol>
<symbol id="reddit" viewBox="0 0 235 235">
	<circle cx="117.5" cy="117.5" r="117.5" fill="#ff4500"/>
	<path d="m183.57 34.286c-10.059 0-18.215 8.7936-18.215 19.643 0 10.848 8.1548 19.643 18.215 19.643s18.213-8.7946 18.213-19.643c0-10.849-8.1529-19.643-18.213-19.643zm-65.596 45.713c-23.656 0-45.064 6.7888-60.541 17.754-3.6126-6.3446-10.219-10.609-17.793-10.609-11.44 0-20.713 9.6981-20.713 21.662 0 9.8602 6.3014 18.178 14.922 20.799-0.8886 3.4892-1.3535 7.0822-1.3535 10.752 0 33.335 38.271 60.357 85.479 60.357 47.209 0 85.48-27.023 85.48-60.357 0-3.6168-0.45287-7.1599-1.3164-10.602 8.1102-2.9368 13.936-10.988 13.936-20.469 0-11.963-9.2738-21.662-20.715-21.662-7.2494 0-13.619 3.9014-17.32 9.7988-15.438-10.769-36.648-17.424-60.064-17.424zm28.098 34.645c6.74 0 12.203 5.597 12.203 12.5 0 6.904-5.4641 12.5-12.203 12.5-6.74 0-12.201-5.596-12.201-12.5 0-6.903 5.4622-12.5 12.201-12.5zm-63.512 1.0723c6.74 0 12.203 5.596 12.203 12.5 0 6.903-5.4641 12.5-12.203 12.5s-12.201-5.597-12.201-12.5c0-6.904 5.4622-12.5 12.201-12.5zm-0.77734 45.711c21.537 6.9956 44.171 5.2116 67.145 0.7129-19.6 10.885-40.035 18.437-67.145-0.7129z" fill="#fff"/>
	<path d="m173.92 50.715-44.113-14.393-11.601 57.25" fill="none" stroke="#fff" stroke-width="4.9"/>

</symbol>
<symbol id="stackoverflow" viewBox="0 0 88.969391 113.4281">
    <path d="M63.277 72.606L19.852 62.073l2.107-8.685L65.384 63.92l-2.107 8.686m2.911-10.39l-39.79-20.332 4.066-7.958 39.79 20.332-4.066 7.958m6.129-10.764l-33.65-29.399 5.88-6.73 33.65 29.398-5.88 6.73m9.258-9.46L56.482 5.018 63.877 0 88.97 36.971l-7.395 5.019M62.582 83.469l-44.618-2.436.487-8.924 44.618 2.437-.487 8.923" fill="#e5712a"/>
    <path d="M71.833 104.49V67.467h8.929l.006 45.962H0l.002-46.001H8.94v37.062h62.894" fill="#999"/>
    <path d="M17.84 86.651h44.987v8.937H17.84z" fill="#e5712a"/>

</symbol>
<symbol id="upwork" viewBox="0 0 100 90">
	<rect y="-2.861e-6" width="100" height="90" fill="#6fda44" stroke-width=".94868"/>
	<path d="m72.791 20.518c-8.9288 0-15.749 5.8731-18.336 15.279-4.2257-6.5856-7.5194-14.103-9.4018-20.45h-9.4027v24.917c0 4.94-3.9977 8.9288-8.9288 8.9288-4.94 0-8.9288-3.9977-8.9288-8.9288v-24.917h-9.4018v24.917c0 10.344 8.2242 18.57 18.335 18.57 10.108 0 18.335-8.2242 18.335-18.57v-4.2275c1.8845 3.7599 4.2356 7.7576 6.8154 11.283l-5.8734 27.502h9.6375l4.2353-19.98c3.7597 2.3511 7.9959 3.7597 12.929 3.7597 10.342 0 18.805-8.4619 18.805-19.274 0-10.344-8.4619-18.806-18.805-18.806zm0 28.442c-3.7599 0-7.5197-1.6467-10.578-4.2356l0.94229-3.7599v-0.27444c0.73185-3.9977 2.8177-10.814 9.8722-10.814 5.1687 0 9.4027 4.2356 9.4027 9.4036-0.27444 5.4065-4.7021 9.6375-9.6375 9.6375z" fill="#fff" stroke-width="2.3506"/>

</symbol>
<symbol id="creative-commons" viewBox="0 0 119.99902 42.001411">
    <g transform="matrix(.99378 0 0 .99367 -177.694 -74.436)">
        <path fill="#aab2ab" d="M182.24 75.39l114.06.203c1.59 0 3.02-.237 3.02 3.18l-.14 37.567H179.36V78.634c0-1.685.16-3.244 2.88-3.244z"/>
        <path d="M213.544 94.607c.01 7.577-6.136 13.723-13.713 13.728-7.576.004-13.722-6.135-13.73-13.712v-.016c0-7.58 6.136-13.724 13.713-13.73 7.577-.004 13.723 6.136 13.73 13.713v.017z" fill="#fff"/>
        <path d="M210.97 83.428c3.046 3.047 4.565 6.774 4.565 11.182 0 4.4-1.493 8.092-4.487 11.05-3.17 3.126-6.922 4.69-11.243 4.69-4.278 0-7.96-1.555-11.06-4.645-3.1-3.1-4.644-6.8-4.644-11.095 0-4.303 1.546-8.03 4.645-11.182 3.02-3.038 6.704-4.565 11.06-4.565 4.4 0 8.126 1.527 11.164 4.565zm-20.174 2.05c-2.575 2.594-3.858 5.64-3.858 9.132s1.274 6.512 3.814 9.052c2.55 2.55 5.578 3.824 9.096 3.824s6.573-1.292 9.166-3.86c2.47-2.39 3.7-5.393 3.7-9.016 0-3.596-1.247-6.643-3.752-9.148-2.506-2.514-5.544-3.762-9.114-3.762s-6.59 1.257-9.052 3.78zm6.765 7.596c-.392-.856-.976-1.283-1.762-1.283-1.388 0-2.086.935-2.086 2.803s.698 2.802 2.086 2.802c.916 0 1.57-.463 1.964-1.37l1.92 1.02c-.916 1.633-2.295 2.445-4.13 2.445-1.413 0-2.54-.428-3.394-1.3-.847-.865-1.275-2.06-1.275-3.58 0-1.5.437-2.688 1.318-3.57.874-.882 1.966-1.318 3.275-1.318 1.938 0 3.326.76 4.172 2.287l-2.086 1.064zm9.045 0c-.393-.856-.97-1.283-1.73-1.283-1.413 0-2.12.935-2.12 2.803s.707 2.802 2.12 2.802c.918 0 1.564-.463 1.93-1.37l1.964 1.02c-.917 1.633-2.288 2.445-4.12 2.445-1.406 0-2.54-.428-3.388-1.3-.855-.865-1.274-2.06-1.274-3.58 0-1.5.428-2.688 1.292-3.57s1.964-1.318 3.29-1.318c1.94 0 3.327.76 4.165 2.287l-2.13 1.064z"/>
        <path d="M297.3 74.91H181.07a2.26 2.26 0 0 0-2.26 2.262v39.498c0 .28.22.51.51.51h119.73c.28 0 .51-.23.51-.51V77.172c0-1.247-1.02-2.26-2.26-2.26zm-116.23 1.022H297.3c.68 0 1.24.556 1.24 1.24v27.418h-83.08c-3.04 5.51-8.91 9.24-15.64 9.24-6.74 0-12.6-3.73-15.65-9.24h-4.34V77.172c0-.684.55-1.24 1.24-1.24z"/>
        <path d="M265.61 112.88c.08.16.19.29.32.38.13.1.29.17.47.22.18.04.37.07.56.07.13 0 .27-.01.42-.04.15-.02.29-.06.42-.12s.24-.15.32-.26a.63.63 0 0 0 .13-.41c0-.18-.05-.33-.17-.44-.11-.12-.26-.21-.45-.28-.19-.08-.4-.14-.63-.2-.24-.06-.48-.12-.72-.19-.25-.06-.49-.13-.73-.22-.23-.09-.45-.21-.63-.35-.19-.15-.34-.33-.45-.54-.12-.22-.18-.48-.18-.78 0-.34.08-.64.22-.89.15-.25.34-.46.58-.63.23-.17.5-.3.8-.38s.59-.12.89-.12c.35 0 .69.04 1.01.12.31.08.6.2.85.38.25.17.44.4.59.67s.22.6.22.98h-1.42c-.01-.2-.06-.36-.13-.49s-.16-.24-.28-.31c-.12-.08-.25-.13-.4-.16-.16-.03-.32-.05-.5-.05-.12 0-.24.02-.35.04-.12.03-.23.07-.32.13-.1.06-.18.14-.24.23-.06.1-.09.22-.09.36 0 .13.02.24.07.32s.15.15.29.22c.15.07.35.14.61.21s.59.15 1.01.26c.12.02.3.07.52.13.22.07.44.17.65.32.22.14.41.33.57.57s.24.55.24.92c0 .31-.06.59-.18.85s-.3.49-.53.68-.52.33-.87.44c-.34.11-.74.16-1.2.16-.36 0-.72-.05-1.06-.14-.35-.09-.65-.23-.92-.42-.26-.2-.47-.44-.63-.74-.15-.3-.23-.65-.22-1.07h1.42c0 .23.04.42.12.57zm8.26-5.01l2.49 6.66h-1.52l-.51-1.48h-2.49l-.52 1.48h-1.48l2.52-6.66h1.51zm.08 4.08l-.84-2.44h-.02l-.87 2.44h1.73zm-34.77-4.08c.32 0 .61.03.87.08.26.06.48.15.67.28.19.12.33.29.44.5.1.22.15.48.15.79 0 .33-.08.61-.23.84-.15.22-.38.4-.68.55.41.12.72.32.93.62.2.29.3.65.3 1.07 0 .33-.07.63-.2.87-.13.25-.3.45-.52.6-.23.16-.48.27-.76.35-.29.07-.58.11-.88.11h-3.23v-6.66h3.14zm-.19 2.69c.26 0 .48-.06.65-.18.16-.13.25-.33.25-.61 0-.15-.03-.28-.09-.38a.544.544 0 0 0-.22-.23c-.09-.06-.2-.1-.32-.12s-.25-.03-.38-.03h-1.37v1.55h1.48zm.09 2.83c.14 0 .28-.01.41-.04s.24-.08.34-.14c.1-.07.18-.16.24-.27s.09-.25.09-.43c0-.34-.1-.58-.29-.73-.19-.14-.45-.22-.77-.22h-1.59v1.83h1.57zm2.81-5.52h1.64l1.56 2.63 1.55-2.63h1.64l-2.48 4.1v2.56h-1.46v-2.59l-2.45-4.07zm39.96-17.89c.005 5.888-4.764 10.656-10.645 10.662S260.55 95.88 260.55 90v-.02c-.008-5.88 4.76-10.65 10.642-10.656s10.657 4.762 10.657 10.644v.012z" fill="#fff"/>
        <path d="M271.123 78.314c-3.232 0-5.97 1.128-8.207 3.383-2.3 2.334-3.45 5.096-3.45 8.285s1.15 5.933 3.45 8.227c2.294 2.294 5.03 3.442 8.206 3.442 3.213 0 5.994-1.158 8.357-3.472 2.217-2.198 3.324-4.93 3.324-8.198 0-3.266-1.125-6.03-3.388-8.285-2.256-2.255-5.025-3.383-8.294-3.383zm.03 2.1c2.644 0 4.894.933 6.744 2.8 1.87 1.848 2.807 4.104 2.807 6.768 0 2.684-.913 4.91-2.744 6.68-1.93 1.907-4.2 2.86-6.806 2.86-2.613 0-4.863-.943-6.75-2.83-1.888-1.886-2.83-4.123-2.83-6.71-.002-2.586.948-4.842 2.86-6.768 1.832-1.867 4.07-2.8 6.72-2.8z"/>
        <path d="M265.947 88.336c.47-2.937 2.538-4.505 5.125-4.505 3.725 0 5.994 2.704 5.994 6.308 0 3.517-2.412 6.25-6.05 6.25-2.506 0-4.744-1.54-5.156-4.564h2.944c.087 1.57 1.106 2.122 2.562 2.122 1.656 0 2.73-1.54 2.73-3.895 0-2.47-.93-3.777-2.674-3.777-1.28 0-2.387.465-2.618 2.063l.856-.005-2.32 2.315-2.31-2.314.917.006z"/>
        <circle cy="90.225" cx="242.56" r="10.806" fill="#fff"/>
        <path d="M245.69 87.098a.754.754 0 0 0-.75-.754h-4.78c-.41 0-.75.337-.75.754v4.773h1.33v5.653h3.62V91.87h1.33V87.1z"/>
        <circle cy="84.083" cx="242.55" r="1.632"/>
        <path fill-rule="evenodd" clip-rule="evenodd" d="M242.53 78.318c-3.23 0-5.96 1.128-8.2 3.384-2.3 2.333-3.45 5.095-3.45 8.284s1.15 5.932 3.45 8.227c2.29 2.297 5.03 3.447 8.2 3.447 3.22 0 6-1.16 8.36-3.476 2.22-2.197 3.33-4.93 3.33-8.198 0-3.267-1.13-6.028-3.39-8.284s-5.02-3.384-8.3-3.384zm.03 2.1c2.65 0 4.9.934 6.75 2.8 1.87 1.848 2.81 4.104 2.81 6.768 0 2.684-.92 4.91-2.75 6.68-1.93 1.907-4.2 2.86-6.81 2.86s-4.85-.943-6.74-2.83c-1.89-1.886-2.84-4.123-2.84-6.71 0-2.586.96-4.842 2.87-6.767 1.83-1.868 4.07-2.802 6.71-2.802z"/>
    </g>

</symbol>
<symbol id="location" viewBox="0 0 16 16.003361">
    <title>
        Gnome Symbolic Icon Theme
    </title>
    <path d="M8 0a5 5 0 0 0-5 5c0 .173.014.332.031.5.014.167.036.336.063.5C3.666 9.514 6 12.003 8 14.003c2-2 4.334-4.489 4.906-8.003.027-.164.049-.333.063-.5.017-.168.03-.327.03-.5a5 5 0 0 0-5-5zm0 3a2 2 0 1 1 0 4 2 2 0 0 1 0-4z" solid-color="#000000"/>

</symbol>
<symbol id="call-start" viewBox="0 0 16 16">
    <title>
        Gnome Symbolic Icon Theme
    </title>
    <path d="M13.032 1c.534 0 .969.427.969.969v.062c-.017 6.613-5.383 11.97-12 11.97H1.97c-.545 0-.97-.447-.97-1v-3c0-.555.447-1 1-1h2c.555 0 1 .445 1 1v.468A8.967 8.967 0 0 0 10.47 5H10c-.553 0-1-.446-1-1V2c0-.554.447-1 1-1h3.032z"/>

</symbol>
<symbol id="network-workgroup" viewBox="0 0 16 16">
    <title>
        Gnome Symbolic Icon Theme
    </title>
    <path d="M1.75 4C.798 4 0 4.798 0 5.75v4.5C0 11.202.798 12 1.75 12h.125l-.781 1.563L.375 15h9.25l-.719-1.438L8.125 12h.125c.952 0 1.75-.798 1.75-1.75v-4.5C10 4.798 9.202 4 8.25 4h-6.5zM2 6h6v4H2V6z" overflow="visible"/>
    <path d="M7.75 1C6.798 1 6 1.798 6 2.75V3h8v4h-3v3.25c0 .66-.252 1.27-.656 1.75h5.281l-1.5-3h.125C15.202 9 16 8.202 16 7.25v-4.5C16 1.798 15.202 1 14.25 1h-6.5z" overflow="visible"/>

</symbol>
<symbol id="top" viewBox="0 0 16 16">
    <title>
        Gnome Symbolic Icon Theme
    </title>
    <g transform="translate(-221 -747)">
        <rect transform="matrix(0 -1 -1 0 0 0)" x="-752" y="-235" width="2" height="12" rx="0" ry="0"/>
        <path d="M229 752.56l-5.719 5.719a1.01 1.01 0 0 0-.281.719v1h1c.256 0 .523-.086.719-.282l4.28-4.28 4.282 4.28c.196.196.463.282.719.282h1v-1a1.01 1.01 0 0 0-.281-.72z"/>
    </g>

</symbol>
<symbol id="bottom" viewBox="0 0 16 16">
    <title>
        Gnome Symbolic Icon Theme
    </title>
    <g transform="translate(-161 -747)">
        <rect transform="rotate(90)" x="758" y="-175" width="2" height="12" rx="0" ry="0"/>
        <path d="M169 757.44l-5.719-5.719a1.01 1.01 0 0 1-.281-.719v-1h1c.256 0 .523.086.719.282l4.28 4.28 4.282-4.28a1.01 1.01 0 0 1 .719-.282h1v1c0 .256-.086.523-.281.72z"/>
    </g>

</symbol>
<symbol id="next" viewBox="0 0 16 16">
    <title>
        Gnome Symbolic Icon Theme
    </title>
    <path d="M11.44 8l-5.719 5.719a1.01 1.01 0 0 1-.719.281h-1v-1c0-.256.086-.523.282-.719l4.28-4.28-4.28-4.282A1.01 1.01 0 0 1 4.002 3V2h1c.256 0 .523.086.72.281z"/>

</symbol>
<symbol id="prev" viewBox="0 0 16 16">
    <title>
        Gnome Symbolic Icon Theme
    </title>
    <path d="M4.56 8l5.719 5.719c.196.196.463.281.719.281h1v-1a1.01 1.01 0 0 0-.282-.719l-4.28-4.28 4.28-4.282A1.01 1.01 0 0 0 11.998 3V2h-1a1.01 1.01 0 0 0-.72.281z"/>

</symbol>
<symbol id="refresh" viewBox="0 0 16 16">
    <title>
        Gnome Symbolic Icon Theme
    </title>
    <path d="M6.72 2c-.192.009-.372.035-.563.063A6.03 6.03 0 0 0 2.19 4.405C.207 7.048.766 10.831 3.407 12.813c2.642 1.98 6.425 1.422 8.407-1.22.122-.17.189-.382.187-.593v-1h-1a1.024 1.024 0 0 0-.812.406c-1.333 1.777-3.817 2.114-5.594.781C2.818 9.855 2.48 7.37 3.814 5.594 5.146 3.817 7.63 3.48 9.407 4.812c.43.323.77.733 1.032 1.188H9a1 1 0 0 0-1 1v1h6V2h-1a1 1 0 0 0-1 1v1.687A5.966 5.966 0 0 0 6.72 2z"/>

</symbol>
<symbol id="share" viewBox="0 0 16 16">
    <title>
        Gnome Symbolic Icon Theme
    </title>
    <g>
        <path d="M5.969 7.969a2.969 2.969 0 1 1-5.938 0 2.969 2.969 0 1 1 5.938 0zm9.969 5a2.969 2.969 0 1 1-5.938 0 2.969 2.969 0 1 1 5.938 0zm0-10a2.969 2.969 0 1 1-5.938 0 2.969 2.969 0 1 1 5.938 0z" overflow="visible"/>
        <path d="M12.625 2.156L2.562 7.031.75 7.938l1.812.906 10.032 5.062.906-1.812-8.22-4.156 8.219-4-.875-1.782z" overflow="visible"/>
    </g>

</symbol>
<symbol id="close" viewBox="0 0 16 16">
    <title>
        Gnome Symbolic Icon Theme
    </title>
    <path d="M4 4h1.031c.255.011.51.129.688.313L8 6.592l2.313-2.28c.265-.231.446-.306.687-.313h1v1c0 .286-.034.55-.25.75L9.469 8.031l2.25 2.25c.188.188.281.454.281.719v1h-1c-.265 0-.53-.093-.719-.281L8 9.438l-2.281 2.28A1.015 1.015 0 0 1 5 12H4v-1c0-.265.093-.53.281-.719l2.282-2.25L4.28 5.75A.909.909 0 0 1 4 5V4z"/>

</symbol>
<symbol id="pin" viewBox="0 0 16 16">
    <title>
        Gnome Symbolic Icon Theme
    </title>
    <path d="M10 3L7 5 4 4v7l3-1 3 2V8l5-.483L10 7z" solid-color="#000000"/>

</symbol>
<symbol id="recent" viewBox="0 0 16 16">
    <title>
        Gnome Symbolic Icon Theme
    </title>
    <path d="M7.5.01A7.492 7.492 0 0 0 .013 7.497c0 4.13 3.357 7.486 7.487 7.486s7.487-3.356 7.487-7.486A7.492 7.492 0 0 0 7.5.01zm0 1.973c3.05 0 5.513 2.464 5.513 5.514S10.55 13.01 7.5 13.01s-5.513-2.464-5.513-5.513S4.45 1.983 7.5 1.983z"/>
    <path d="M10.406 4a.5.5 0 0 0-.25.156L7.5 6.812 5.844 5.156a.5.5 0 1 0-.688.688l2 2a.5.5 0 0 0 .688 0l3-3A.5.5 0 0 0 10.406 4z"/>

</symbol>
<symbol id="engineering" viewBox="0 0 16 16">
    <title>
        Gnome Symbolic Icon Theme
    </title>
    <g>
        <path d="M7.997 8c-3.999 0-5.998 3-5.998 6H.25c-.25 0-.25.157-.25.25v1.5c0 .25.138.25.25.25h15.494c.195.006.25-.13.25-.25v-1.5c.021-.146 0-.25-.25-.25h-1.75c0-3-1.999-6-5.997-6zm0 3c2.35 0 2.999 1.762 2.999 3H4.998c0-1.198.703-3 2.999-3z" fill-rule="evenodd"/>
        <path d="M14.989.6a3.652 3.652 0 0 0-.967-.561l-.021 2.232c-.005.458-.452.729-1.006.729h-1c-.553-.007-1.003-.31-.998-.768L11.018 0a3.646 3.646 0 0 0-.977.536c-1.377 1.114-1.395 2.95-.04 4.098.284.24.624.42.967.562.028.011.028 2.054.028 2.054C12.486 8 13.346 9 13.995 10V5.252a3.55 3.55 0 0 0 .954-.554c1.377-1.114 1.395-2.949.04-4.098z" overflow="visible"/>
    </g>

</symbol>
<symbol id="avatar-default" viewBox="0 0 16 16">
    <title>
        Gnome Symbolic Icon Theme
    </title>
    <g>
        <path d="M10.555 8.094C9.849 8.717 9.015 9 8 9c-1.016 0-1.853-.29-2.559-.914-1.109.363-2.436 1.288-2.437 2.902L3 14c0 .554.446 1 1 1h8c.554 0 1-.446 1-1v-3c0-1.387-1.102-2.556-2.445-2.906z"/>
        <path d="M11 5a3 3 0 1 1-6 0 3 3 0 1 1 6 0z" overflow="visible"/>
    </g>

</symbol>
<symbol id="link" viewBox="0 0 16 16"><path fill-rule="evenodd" d="M4 9h1v1H4c-1.5 0-3-1.69-3-3.5S2.55 3 4 3h4c1.45 0 3 1.69 3 3.5 0 1.41-.91 2.72-2 3.25V8.59c.58-.45 1-1.27 1-2.09C10 5.22 8.98 4 8 4H4c-.98 0-2 1.22-2 2.5S3 9 4 9zm9-3h-1v1h1c1 0 2 1.22 2 2.5S13.98 12 13 12H9c-.98 0-2-1.22-2-2.5 0-.83.42-1.64 1-2.09V6.25c-1.09.53-2 1.84-2 3.25C6 11.31 7.55 13 9 13h4c1.45 0 3-1.69 3-3.5S14.5 6 13 6z"/>
</symbol>
<symbol id="link-external" viewBox="0 0 12 16"><path fill-rule="evenodd" d="M11 10h1v3c0 .55-.45 1-1 1H1c-.55 0-1-.45-1-1V3c0-.55.45-1 1-1h3v1H1v10h10v-3zM6 2l2.25 2.25L5 7.5 6.5 9l3.25-3.25L12 8V2H6z"/>
</symbol>
<symbol id="organization" viewBox="0 0 16 16"><path fill-rule="evenodd" d="M16 12.999c0 .439-.45 1-1 1H7.995c-.539 0-.994-.447-.995-.999H1c-.54 0-1-.561-1-1 0-2.634 3-4 3-4s.229-.409 0-1c-.841-.621-1.058-.59-1-3 .058-2.419 1.367-3 2.5-3s2.442.58 2.5 3c.058 2.41-.159 2.379-1 3-.229.59 0 1 0 1s1.549.711 2.42 2.088C9.196 9.369 10 8.999 10 8.999s.229-.409 0-1c-.841-.62-1.058-.59-1-3 .058-2.419 1.367-3 2.5-3s2.437.581 2.495 3c.059 2.41-.158 2.38-1 3-.229.59 0 1 0 1s3.005 1.366 3.005 4"/>
</symbol>
<symbol id="mail-send" viewBox="0 0 16 16">
    <title>
        Gnome Symbolic Icon Theme
    </title>
    <g transform="translate(-360 -786)">
        <path d="M361 786v2a1 1 0 0 1 0 2v1a1 1 0 1 1 0 2v1a1 1 0 0 1 0 2v1a1 1 0 0 1 0 2v2h2a1 1 0 0 1 2 0h1a1 1 0 0 1 2 0h1a1 1 0 0 1 2 0h1a1 1 0 1 1 2 0h2v-2a1 1 0 1 1 0-2v-1a1 1 0 1 1 0-2v-1a1 1 0 1 1 0-2v-1a1 1 0 1 1 0-2v-2h-2a1 1 0 1 1-2 0h-1a1 1 0 1 1-2 0h-1a1 1 0 0 1-2 0h-1a1 1 0 0 1-2 0zm2 2h11v11h-2v-2.063c0-1.066-.779-1.98-1.719-2.25-.494.48-1.07.688-1.781.688s-1.288-.208-1.781-.688c-.777.28-1.718.977-1.719 2.22V799h-2z"/>
        <circle transform="translate(322.81 476.15) scale(.92307)" cx="49.5" cy="342.5" r="2.5"/>
    </g>

</symbol>
<symbol id="mail-unread" viewBox="0 0 16 16">
    <title>
        Gnome Symbolic Icon Theme
    </title>
    <g>
        <path d="M2.781 4a1 1 0 0 0-.406 1.781l5 4 .625.5.625-.5 5-4a1 1 0 1 0-1.25-1.562L8 7.719l-4.375-3.5A1 1 0 0 0 2.781 4z" overflow="visible"/>
        <path d="M1.906 3A1 1 0 0 0 1 4v9a1 1 0 0 0 1 1h12a1 1 0 0 0 1-1V4a1 1 0 0 0-1-1H2a1 1 0 0 0-.094 0zM3 5h10v7H3V5z" overflow="visible"/>
    </g>

</symbol>
<symbol id="home" viewBox="0 0 16.013 16">
    <title>
        Gnome Symbolic Icon Theme
    </title>
    <g transform="translate(-562.994 -175)">
        <title transform="translate(405.62 -584.902)">
            go-home
        </title>
        <path d="M565.781 180a1 1 0 0 0-.781 1v7a1 1 0 0 0 1 1h10a1 1 0 0 0 1-1v-7a1 1 0 1 0-2 0v6h-8v-6a1 1 0 0 0-1.219-1z" overflow="visible"/>
        <path d="M570.906 176a1 1 0 0 0-.5.188l-7 5a1.006 1.006 0 1 0 1.188 1.625L571 178.25l6.406 4.563a1.006 1.006 0 1 0 1.188-1.625l-7-5a1 1 0 0 0-.688-.188z" overflow="visible"/>
        <path overflow="visible" d="M569 183h3v6h-3z"/>
        <rect height="1" rx="0" ry="1" transform="scale(-1 1)" width="1" x="-579" y="182"/>
        <rect height="1" rx="0" ry="1" transform="scale(-1 1)" width="1" x="-564" y="182"/>
    </g>

</symbol>
<symbol id="menu" viewBox="0 0 16 16">
    <title>
        Gnome Symbolic Icon Theme
    </title>
    <path d="M3 3h10v2H3zM3 7h10v2H3zM3 11h10v2H3z"/>

</symbol>
<symbol id="comments" viewBox="0 0 16 16"><path fill-rule="evenodd" d="M15 1H6c-.55 0-1 .45-1 1v2H1c-.55 0-1 .45-1 1v6c0 .55.45 1 1 1h1v3l3-3h4c.55 0 1-.45 1-1V9h1l3 3V9h1c.55 0 1-.45 1-1V2c0-.55-.45-1-1-1zM9 11H4.5L3 12.5V11H1V5h4v3c0 .55.45 1 1 1h3v2zm6-3h-2v1.5L11.5 8H6V2h9v6z"/>
</symbol>
<symbol id="view-more" viewBox="0 0 16 16">
    <title>
        Gnome Symbolic Icon Theme
    </title>
    <g transform="translate(-121 -867)">
        <rect x="127" y="867" width="4" height="4" rx=".385" ry=".502"/>
        <rect x="127" y="873" width="4" height="4" rx=".385" ry=".502"/>
        <rect x="127" y="879" width="4" height="4" rx=".385" ry=".502"/>
    </g>

</symbol>
<symbol id="tag" viewBox="0 0 14 16"><path fill-rule="evenodd" d="M7.73 1.73C7.26 1.26 6.62 1 5.96 1H3.5C2.13 1 1 2.13 1 3.5v2.47c0 .66.27 1.3.73 1.77l6.06 6.06c.39.39 1.02.39 1.41 0l4.59-4.59a.996.996 0 0 0 0-1.41L7.73 1.73zM2.38 7.09c-.31-.3-.47-.7-.47-1.13V3.5c0-.88.72-1.59 1.59-1.59h2.47c.42 0 .83.16 1.13.47l6.14 6.13-4.73 4.73-6.13-6.15zM3.01 3h2v2H3V3h.01z"/>
</symbol>
<symbol id="preferences" viewBox="0 0 16 16">
    <title>
        Gnome Symbolic Icon Theme
    </title>
    <g>
        <path d="M3.549.09a3.5 3.5 0 0 0-1.143.216l1.885 1.88c.387.386.387 1 0 1.387l-.711.708a.98.98 0 0 1-1.39 0L.303 2.401a3.473 3.473 0 0 0-.216 1.14 3.456 3.456 0 0 0 3.46 3.452 3.5 3.5 0 0 0 1.144-.216l1.174 1.171a2.472 2.465 0 0 1 .062 0l2.07-2.064-1.205-1.202a3.46 3.46 0 0 0 .217-1.14A3.456 3.456 0 0 0 3.549.09zm6.55 7.89l-2.07 2.064a2.472 2.465 0 0 1 .031.092l1.144 1.14a3.474 3.474 0 0 0-.217 1.14 3.456 3.456 0 0 0 3.461 3.452c.434 0 .854-.102 1.236-.247l-2.008-2.003a1.01 1.01 0 0 1 0-1.417l.68-.678a1.03 1.03 0 0 1 .71-.308c.253 0 .517.115.71.308l1.947 1.941c.105-.33.186-.683.186-1.047a3.456 3.456 0 0 0-3.46-3.452 3.5 3.5 0 0 0-1.144.216L10.1 7.979z" overflow="visible"/>
        <path d="M13.858 0l-1.542 1.438c-.452.42-.53 1.148-.267 1.706L6.161 9.14a1.492 1.488 0 0 0-.031 0 1.492 1.488 0 0 0-.84-.148 1.492 1.488 0 0 0-.867.44L.477 13.43a1.494 1.49 0 1 0 2.13 2.09l3.946-3.997a1.492 1.488 0 0 0 .297-1.738l5.888-5.965c.558.249 1.273.147 1.707-.292l1.417-1.56L13.858 0z" overflow="visible"/>
    </g>

</symbol>
<symbol id="web-browser" viewBox="0 0 16 16.004">
    <title>
        Gnome Symbolic Icon Theme
    </title>
    <g>
        <path d="M8 4.846v10.38l-2.344-2.288-1.34 2.734c-.327.74-2.033.145-1.548-.844l1.326-2.839H1.136L8 4.846z" display="block" overflow="visible"/>
        <path d="M7.156 1.063C3.33 1.522.578 5.02 1.063 8.843c.131 1.035.293 1.383.293 1.383l1.675-1.632A4.992 4.992 0 0 1 7.406 3.03a4.992 4.992 0 0 1 5.563 4.375c.314 2.608-1.391 5.025-3.969 5.532l.031 2s.521-.106.624-.131c3.416-.834 5.706-4.128 5.283-7.65-.46-3.827-3.955-6.555-7.782-6.095z" overflow="visible"/>
        <path d="M4.113 7.815v-.206l-.198.019.05-.393h-.117l-.115.15-.116.056-.165-.093-.017-.206.033-.225.248-.186h.199l.033-.113.247.056.182.225.033-.374.314-.262.116-.28.231-.094.133-.187.297-.056.149-.225h-.446l.28-.13h.199l.28-.094.034-.112-.1-.094-.115-.037.033-.112-.083-.169-.198.075.033-.15-.231-.13-.182.317.017.113-.182.075-.116.243-.05-.225-.313-.13-.05-.169.413-.243.182-.168.017-.206-.1-.056L4.84 4l-.082.206s-.139.027-.174.036C4.13 4.66 3.214 5.562 3 7.266c.008.04.155.268.155.268l.347.206.347.093m3.966-4.3l-.43-.168-.496.056-.611.168-.116.112.38.262v.15l-.149.15.199.392.132-.075.165-.262a5.51 5.51 0 0 0 .727-.28l.199-.505m2.529.342l-.375.094-.219.156v.125l-.375.25.094.344.219-.157.125.157.156.093.094-.28L10 4.5l.063-.094.218-.187h.094l-.094.218v.188c.09-.024.16-.051.25-.063l-.25.188v.125l-.312.219-.281-.063v-.156l-.125.062.062.157h-.219l-.125.218-.156.157-.094.03v.188l.032.157H9.03v.53l.063-.03.094-.219L9.375 6l.031-.094.282-.062.156.187.187.094-.093.187.156-.03.062-.22-.187-.218h.062l.22.156.03.219.157.219.062-.313.094-.031c.096.1.169.231.25.344h.281l.188.125-.094.093-.156.157h-.25l-.344-.094h-.188l-.125.156-.343-.375-.25-.062-.375.062-.157.094V9l.032.031.25-.156.093.094h.281l.125.156-.093.312.187.188V10l.125.25-.093.25c-.01.161 0 .307 0 .469.08.219.143.435.218.656l.063.344v.187h.125l.219-.125h.25l.375-.437-.032-.157.25-.218-.187-.188.219-.187.218-.125.094-.125-.062-.25V9.75l.187-.375.188-.25.25-.563v-.156c-.117.015-.23.023-.344.031-.072.005-.145 0-.219 0a7.442 7.442 0 0 1-.312-.78l-.157-.188-.093-.313.062-.062.219.25.25.562.156.156-.062.22.156.155.25-.25.312-.218.157-.188v-.219c-.04-.073-.055-.145-.094-.218l-.156.187-.125-.156-.188-.125v-.281l.219.218.219-.03c.101.091.192.207.28.312L13 7.28c0-.174-.2-1.02-.625-1.75S11.22 4.125 11.22 4.125l-.063.094-.218.218-.25-.25h.25l.125-.125-.47-.093-.25-.094z" opacity=".3" overflow="visible"/>
    </g>

</symbol>
<symbol id="rss" viewBox="0 0 16 16">
    <title>
        Gnome Symbolic Icon Theme
    </title>
    <g>
        <path d="M6 12a2 2 0 1 1-4 0 2 2 0 1 1 4 0z" overflow="visible"/>
        <path d="M2 2v1c0 .55.454 1 1 1a9 9 0 0 1 9 9c0 .55.454 1 1 1h1v-1C14 6.925 9.075 2 3 2H2zm0 4v1c0 .55.454 1 1 1a5 5 0 0 1 5 5c0 .55.454 1 1 1h1v-1a7 7 0 0 0-7-7H2z" overflow="visible"/>
    </g>

</symbol>
<symbol id="documents" viewBox="0 0 16 16">
    <title>
        Gnome Symbolic Icon Theme
    </title>
    <g transform="translate(-542 -382)">
        <path d="M544 382c-1.09 0-2 .91-2 2v9c0 1.09.91 2 2 2h7c1.09 0 2-.91 2-2v-9c0-1.09-.91-2-2-2h-7zm0 2h7v9h-7v-9z" overflow="visible"/>
        <path d="M554 385v2h1v9h-9c0 1.09.91 2 2 2h7c1.09 0 2-.91 2-2v-9c0-1.09-.91-2-2-2z" overflow="visible"/>
        <rect x="545" y="385" rx=".5" height="1" ry=".5" width="4" overflow="visible"/>
        <rect x="545" y="387" rx=".5" height="1" ry=".5" width="5" overflow="visible"/>
        <rect x="545" y="389" rx=".5" height="1" ry=".5" width="3" overflow="visible"/>
        <rect x="545" y="391" rx=".5" height="1" ry=".5" width="5" overflow="visible"/>
    </g>

</symbol>
<symbol id="address-book" viewBox="0 0 16 16">
    <title>
        Gnome Symbolic Icon Theme
    </title>
    <g>
        <path d="M1.189 14c0 1.09.91 2 2 2h8.823c1.09 0 2-.91 2-2V3c0-1.09-.91-2-2-2H3.189c-1.09 0-2 .91-2 2h10.823v11H1.189z" overflow="visible"/>
        <path d="M.594 12a.502.502 0 1 0 .093 1H2.5a.5.5 0 1 0 0-1H.687a.5.5 0 0 0-.093 0zm0-2a.502.502 0 1 0 .093 1H2.5a.5.5 0 1 0 0-1H.687a.5.5 0 0 0-.093 0zm0-2a.502.502 0 1 0 .093 1H2.5a.5.5 0 1 0 0-1H.687a.5.5 0 0 0-.093 0zm0-2a.502.502 0 1 0 .093 1H2.5a.5.5 0 1 0 0-1H.687a.5.5 0 0 0-.093 0zm0-2a.502.502 0 1 0 .093 1H2.5a.5.5 0 1 0 0-1H.687a.5.5 0 0 0-.093 0z" overflow="visible"/>
        <path d="M7 10c.328.066.666.007 1 0 .334-.007.669.04 1 0 .624-.074 1.196-.462 1.523-.998a2.41 2.41 0 0 0 .26-1.817A2.807 2.807 0 0 0 9.75 5.652 3.366 3.366 0 0 0 8.009 5a3.737 3.737 0 0 0-2.565.746 3.69 3.69 0 0 0-1.382 2.285 3.647 3.647 0 0 0 .185 1.895c.228.6.618 1.137 1.119 1.54.5.402 1.11.668 1.744.76A3.647 3.647 0 0 0 9 12v-1c-.453.299-1 .453-1.542.437a2.677 2.677 0 0 1-1.513-.53 2.676 2.676 0 0 1-.932-1.304A2.677 2.677 0 0 1 5 8a2.818 2.818 0 0 1 1.154-1.511A3.13 3.13 0 0 1 8 6c.537.026 1.082.193 1.483.551.2.18.362.404.456.656.095.252.12.53.061.793-.054.24-.18.464-.355.637a1.294 1.294 0 0 1-.645.34V8a1.628 1.628 0 0 0-.595-.737 1.628 1.628 0 0 0-.905-.277c-.32 0-.64.098-.905.277-.266.18-.476.44-.595.737-.158.394-.152.856.033 1.238.186.383.55.678.967.762m1.036-.977a.708.708 0 0 1-.814.132.707.707 0 0 1-.378-.732.707.707 0 0 1 .453-.554A.706.706 0 0 1 8 8" letter-spacing="0" word-spacing="0"/>
    </g>

</symbol>
<symbol id="print" viewBox="0 0 16 16">
    <title>
        Gnome Symbolic Icon Theme
    </title>
    <path d="M2 4c-.5 0-1 .5-1 1v4c0 .5.5 1 1 1h1V8h10v2h1c.5 0 1-.5 1-1V5c0-.5-.5-1-1-1zm2-3v2h8V1z"/>
    <path d="M4 9v5h8V9z"/>

</symbol>
<symbol id="pause" viewBox="0 0 16 16">
    <title>
        Gnome Symbolic Icon Theme
    </title>
    <path d="M4 4v8h3V4H4zm5 0v8h3V4H9z"/>

</symbol>
<symbol id="play" viewBox="0 0 16 16">
    <title>
        Gnome Symbolic Icon Theme
    </title>
    <path d="M4 3v10h1a1 1 0 0 0 .5-.125l7-4c.31-.172.469-.523.469-.875s-.158-.703-.469-.875l-7-4A.996.996 0 0 0 5 3h-.094z"/>

</symbol>
<symbol id="stop" viewBox="0 0 16 16">
    <title>
        Gnome Symbolic Icon Theme
    </title>
    <path d="M4 4v8h8V4z"/>

</symbol>
<symbol id="git" viewBox="0 0 114.86033 114.85804">
    <title>
        Git Logo
    </title>
    <path fill="#f03c2e" d="M112.693 52.316L62.543 2.17a7.398 7.398 0 0 0-10.46 0L41.67 12.583l13.21 13.208c3.07-1.036 6.59-.34 9.036 2.106a8.79 8.79 0 0 1 2.088 9.094l12.73 12.73c3.082-1.06 6.634-.374 9.095 2.09a8.8 8.8 0 0 1 0 12.447 8.802 8.802 0 0 1-14.366-9.574L61.59 42.812V74.06a8.863 8.863 0 0 1 2.325 1.662 8.802 8.802 0 1 1-12.446 0 8.79 8.79 0 0 1 2.882-1.92V42.267a8.724 8.724 0 0 1-2.883-1.92c-2.604-2.603-3.23-6.425-1.895-9.623L36.552 17.7 2.165 52.082a7.402 7.402 0 0 0 0 10.464l50.152 50.147a7.4 7.4 0 0 0 10.462 0L112.69 62.78a7.4 7.4 0 0 0 0-10.465"/>

</symbol>
<symbol id="html5" viewBox="0 0 362.73401 512">
    <title>
        HTML5 Logo
    </title>
    <path fill="#e44d26" d="M329.687 470.82L181.147 512l-148.14-41.12L0 100.62h362.737z"/>
    <path fill="#f16529" d="M181.367 130.89v349.63l120.03-33.27 28.24-316.36z"/>
    <path fill="#ebebeb" d="M181.367 221.72V176.3H67.497l1.09 12.19 11.16 125.14h101.62v-45.41h-60.09l-4.15-46.5zm-54.01 114.61h-45.58l6.36 71.3 93.02 25.83.21-.06v-47.25l-.2.06-50.57-13.66z"/>
    <path d="M33.75 0h23.076v22.8h21.11V0h23.078v69.044H77.937v-23.12h-21.11v23.12H33.75V0zm97.61 22.896h-20.316V0h63.72v22.896H154.44v46.148h-23.08V22.896zM184.88 0h24.06l14.8 24.26L238.53 0h24.072v69.044H239.62V34.822l-15.877 24.55h-.397l-15.888-24.55v34.222h-22.58V0zm89.21 0h23.084v46.222h32.453v22.822H274.09V0z"/>
    <path fill="#fff" d="M231.857 372.52l-50.65 13.67v47.25l93.1-25.81.68-7.67 10.67-119.55 1.11-12.19h-105.56v45.41h55.92zm-50.65-150.8h109.69l.91-10.21 2.07-23.02 1.09-12.19h-113.76v45.3z"/>

</symbol>
<symbol id="css3" viewBox="0 0 297.45001 419.87601">
    <title>
        CSS3 Logo
    </title>
    <g fill="none">
        <path fill="#131313" d="M233.09 15.546H208.4l25.675 27.86v13.26h-52.882V41.14h25.67l-25.67-27.86V0h51.896v15.546zm-62.38 0h-24.687l25.673 27.86v13.26h-52.882V41.14h25.672l-25.672-27.86V0h51.897v15.546zm-61.767.63h-26.64V40.49h26.64v16.176H63.37V0h45.573v16.177z"/>
        <path fill="#1572b6" d="M27.07 386.155L0 82.535h297.45l-27.096 303.57-121.81 33.77-121.47-33.72z"/>
        <path fill="#33a9dc" d="M148.73 394.065l98.426-27.288 23.157-259.42h-121.58v286.7z"/>
        <path fill="#fff" d="M148.726 217.36H198l3.404-38.13h-52.678v-37.24H242.1l-.892 9.99-9.152 102.62h-83.33v-37.235z"/>
        <path fill="#ebebeb" d="M148.95 314.065l-.164.046-41.472-11.198-2.652-29.698h-37.38L72.5 331.68l76.277 21.177.172-.048v-38.745z"/>
        <path fill="#fff" d="M194.84 253.025l-4.485 49.87-41.532 11.21v38.742l76.34-21.158.56-6.29 6.477-72.375h-37.36z"/>
        <path fill="#ebebeb" d="M148.855 141.99v37.238H58.907l-.746-8.37-1.696-18.877-.89-9.99h93.28zm-.129 75.375v37.239h-40.948l-.745-8.37-1.698-18.877-.89-9.99h44.28z"/>
    </g>

</symbol>
<symbol id="javascript" viewBox="0 0 1052 1052">
    <path fill="#F0DB4F" d="M0 0h1052v1052H0z"/>
    <path d="M965.9 801.1c-7.7-48-39-88.3-131.7-125.9-32.2-14.8-68.1-25.4-78.8-49.8-3.8-14.2-4.3-22.2-1.9-30.8 6.9-27.9 40.2-36.6 66.6-28.6 17 5.7 33.1 18.8 42.8 39.7 45.4-29.4 45.3-29.2 77-49.4-11.6-18-17.8-26.3-25.4-34-27.3-30.5-64.5-46.2-124-45-10.3 1.3-20.7 2.7-31 4-29.7 7.5-58 23.1-74.6 44-49.8 56.5-35.6 155.4 25 196.1 59.7 44.8 147.4 55 158.6 96.9 10.9 51.3-37.7 67.9-86 62-35.6-7.4-55.4-25.5-76.8-58.4-39.4 22.8-39.4 22.8-79.9 46.1 9.6 21 19.7 30.5 35.8 48.7 76.2 77.3 266.9 73.5 301.1-43.5 1.4-4 10.6-30.8 3.2-72.1zm-394-317.6h-98.4c0 85-.4 169.4-.4 254.4 0 54.1 2.8 103.7-6 118.9-14.4 29.9-51.7 26.2-68.7 20.4-17.3-8.5-26.1-20.6-36.3-37.7-2.8-4.9-4.9-8.7-5.6-9-26.7 16.3-53.3 32.7-80 49 13.3 27.3 32.9 51 58 66.4 37.5 22.5 87.9 29.4 140.6 17.3 34.3-10 63.9-30.7 79.4-62.2 22.4-41.3 17.6-91.3 17.4-146.6.5-90.2 0-180.4 0-270.9z" fill="#323330"/>

</symbol>
<symbol id="mysql" viewBox="0 0 391 202">
    <path d="M.738 183.825H13.58v-50.71l19.88 44.207c2.346 5.35 5.557 7.244 11.854 7.244 6.298 0 9.385-1.893 11.732-7.244l19.88-44.208v50.71h12.842v-50.627c0-4.94-1.976-7.327-6.05-8.56-9.755-3.047-16.3-.413-19.264 6.173l-19.51 43.63-18.892-43.63c-2.84-6.586-9.508-9.22-19.263-6.174-4.076 1.234-6.052 3.622-6.052 8.56v50.63zm99.704-41.269h12.838v27.938c-.12 1.518.487 5.08 7.522 5.19 3.59.057 27.7 0 27.925 0V142.42h12.868c.06 0-.013 45.364-.012 45.557.07 11.188-13.882 13.618-20.313 13.806h-40.55v-8.64c.072 0 40.52.01 40.622 0 8.265-.874 7.29-4.982 7.288-6.365v-3.368h-27.295c-12.7-.117-20.786-5.66-20.886-12.035-.01-.59.273-28.54-.008-28.82z" fill="#00618a"/>
    <path d="M171.5 183.83h36.92c4.322 0 8.52-.904 11.855-2.47 5.556-2.55 8.273-6.007 8.273-10.536v-9.384c0-3.705-3.087-7.163-9.138-9.467-3.21-1.236-7.162-1.894-10.99-1.894h-15.56c-5.184 0-7.654-1.565-8.27-5.022-.125-.412-.125-.742-.125-1.153v-5.844c0-.33 0-.66.124-1.07.616-2.634 1.975-3.376 6.543-3.787.37 0 .864-.083 1.235-.083h36.674v-8.56h-36.057c-5.186 0-7.903.33-10.372 1.07-7.656 2.387-10.99 6.174-10.99 12.76v7.49c0 5.764 6.545 10.703 17.534 11.855 1.236.082 2.47.164 3.704.164h13.337c.495 0 .99 0 1.36.082 4.074.33 5.802 1.07 7.038 2.552.74.74.987 1.482.987 2.305v7.49c0 .906-.617 2.06-1.85 3.046-1.113.988-2.965 1.647-5.435 1.812-.494 0-.864.082-1.358.082H171.5v8.56zm137.16-14.9c0 8.81 6.544 13.75 19.757 14.737 1.234.082 2.47.164 3.704.164h33.465v-8.56h-33.71c-7.533 0-10.373-1.894-10.373-6.42v-44.29H308.66v44.37zm-71.92.45v-30.52c0-7.755 5.445-12.458 16.21-13.943a24.63 24.63 0 0 1 3.464-.247h24.376c1.237 0 2.352.083 3.59.247 10.764 1.485 16.208 6.188 16.208 13.942v30.52c0 6.292-2.312 9.66-7.64 11.853l12.65 11.418h-14.912l-10.234-9.237-10.303.653h-13.736c-2.35 0-4.825-.33-7.548-1.073-8.166-2.227-12.126-6.517-12.126-13.612zm13.86-.74c0 .412.124.824.248 1.32.742 3.546 4.083 5.526 9.156 5.526h11.667l-10.716-9.675h14.91l9.348 8.44c1.722-.92 2.856-2.323 3.252-4.126.123-.412.123-.825.123-1.237v-29.285c0-.33 0-.743-.123-1.156-.743-3.3-4.084-5.196-9.033-5.196h-19.426c-5.69 0-9.403 2.475-9.403 6.352v29.037z" fill="#e48e00"/>
    <path d="M376.88 110.357c-7.89-.22-13.93.52-19.08 2.69-1.47.62-3.8.63-4.04 2.47.81.84.93 2.1 1.57 3.14 1.23 2 3.31 4.66 5.16 6.06 2.03 1.53 4.12 3.17 6.29 4.49 3.86 2.36 8.17 3.7 11.89 6.06 2.2 1.39 4.38 3.15 6.51 4.72 1.06.77 1.77 1.98 3.15 2.47v-.23c-.73-.92-.91-2.18-1.58-3.14-.97-.97-1.94-1.95-2.91-2.92-2.86-3.79-6.48-7.11-10.33-9.87-3.07-2.21-9.94-5.19-11.22-8.76-.08-.07-.15-.15-.23-.22 2.18-.25 4.73-1.04 6.74-1.58 3.37-.9 6.39-.67 9.87-1.57 1.58-.45 3.15-.89 4.72-1.34v-.9c-1.76-1.81-3.02-4.2-4.94-5.84-5.03-4.28-10.51-8.55-16.16-12.12-3.13-1.976-7.01-3.26-10.33-4.937-1.11-.564-3.07-.857-3.81-1.796-1.75-2.224-2.7-5.042-4.04-7.632-2.82-5.426-5.587-11.35-8.083-17.06-1.703-3.892-2.815-7.73-4.938-11.223-10.193-16.758-21.164-26.872-38.16-36.814-3.615-2.114-7.97-2.95-12.57-4.04l-7.407-.45c-1.507-.63-3.075-2.473-4.49-3.366-5.63-3.556-20.07-11.293-24.24-1.122-2.633 6.42 3.935 12.685 6.284 15.937 1.65 2.283 3.76 4.84 4.938 7.408.775 1.686.91 3.378 1.572 5.163 1.632 4.396 3.05 9.18 5.162 13.243 1.066 2.055 2.242 4.22 3.59 6.06.828 1.127 2.245 1.624 2.47 3.367-1.387 1.94-1.466 4.95-2.245 7.407-3.508 11.06-2.185 24.81 2.918 32.993 1.566 2.52 5.254 7.91 10.325 5.84 4.436-1.81 3.445-7.41 4.714-12.346.287-1.12.11-1.942.673-2.692v.224c1.347 2.694 2.694 5.387 4.04 8.085 2.99 4.81 8.298 9.84 12.795 13.24 2.332 1.76 4.168 4.81 7.183 5.84v-.23h-.225c-.584-.91-1.498-1.29-2.244-2.02-1.757-1.72-3.71-3.86-5.163-5.83-4.09-5.56-7.704-11.64-10.997-17.962-1.573-3.02-2.94-6.354-4.266-9.428-.51-1.186-.505-2.978-1.57-3.592-1.452 2.253-3.59 4.074-4.714 6.734-1.796 4.25-2.028 9.437-2.693 14.817-.394.14-.22.04-.45.22-3.126-.75-4.225-3.97-5.386-6.732-2.94-6.982-3.485-18.226-.9-26.263.67-2.08 3.694-8.63 2.47-10.55-.584-1.917-2.512-3.025-3.59-4.49-1.336-1.81-2.67-4.194-3.593-6.285-2.404-5.444-3.527-11.556-6.06-17.058-1.21-2.632-3.256-5.295-4.937-7.633-1.86-2.59-3.945-4.5-5.387-7.633-.513-1.113-1.21-2.896-.45-4.04.243-.773.584-1.095 1.348-1.347 1.302-1.003 4.928.334 6.284.898 3.6 1.495 6.604 2.918 9.653 4.938 1.465.97 2.945 2.848 4.714 3.367h2.02c3.16.727 6.7.226 9.652 1.122 5.218 1.586 9.894 4.053 14.14 6.735 12.94 8.17 23.517 19.798 30.753 33.67 1.163 2.233 1.667 4.365 2.692 6.734 2.07 4.778 4.675 9.694 6.733 14.366 2.054 4.66 4.056 9.365 6.955 13.244 1.53 2.04 7.43 3.133 10.1 4.265 1.88.792 4.96 1.622 6.74 2.692 3.4 2.05 6.69 4.49 9.88 6.74 1.59 1.12 6.48 3.58 6.73 5.61z" fill="#00618a"/>
    <path d="M276.54 24.833c-1.645-.03-2.81.18-4.04.45v.223h.225c.785 1.613 2.17 2.65 3.142 4.04a6815.3 6815.3 0 0 0 2.245 4.714l.224-.224c1.39-.98 2.027-2.546 2.02-4.938-.557-.586-.64-1.32-1.122-2.02-.642-.932-1.884-1.462-2.693-2.245z" fill="#00618a" fill-rule="evenodd"/>
    <path d="M371.61 175.023c0 5.654 4.467 9.464 9.464 9.464s9.464-3.81 9.464-9.464c0-5.653-4.467-9.463-9.464-9.463s-9.464 3.81-9.464 9.463zm16.808 0c0 4.29-3.28 7.496-7.344 7.496-4.113 0-7.344-3.207-7.344-7.497s3.23-7.496 7.344-7.496c4.064 0 7.344 3.206 7.344 7.496zm-4.794 5.4h2.12l-3.104-4.743c1.665-.177 2.926-.985 2.926-2.953 0-2.196-1.387-3.104-4.062-3.104h-4.215v10.8h1.816v-4.668h1.69l2.828 4.67zm-4.518-6.182v-3.103h2.094c1.086 0 2.398.202 2.398 1.464 0 1.514-1.186 1.64-2.55 1.64h-1.942z" fill="#e48e00" fill-rule="evenodd"/>

</symbol>
<symbol id="freecodecamp" viewBox="0 0 100.00001 67.371197">
    <path d="M0 32.41C0 21.974 3.567 12.727 10.832 4.537c2.642-3.038 4.756-4.49 6.21-4.49.527 0 1.055.13 1.452.527s.66.793.66 1.32c0 .794-.924 1.982-2.774 3.832C8.85 12.99 5.02 21.974 5.02 32.674c0 11.89 3.962 21.532 11.756 28.93 1.585 1.453 2.378 2.642 2.378 3.567 0 .53-.264 1.057-.66 1.454s-.925.66-1.454.66c-1.85 0-4.36-2.113-7.66-6.34-6.342-7.8-9.38-17.3-9.38-28.5zm100 2.6c0 10.436-3.567 19.683-10.832 27.873-2.642 3.038-4.756 4.49-6.21 4.49-.527 0-1.055-.13-1.452-.527s-.66-.925-.66-1.453c0-.793.924-1.982 2.774-3.7 7.53-7.264 11.36-16.247 11.36-26.947 0-11.89-3.962-21.532-11.756-28.93-1.585-1.453-2.378-2.642-2.378-3.567 0-.53.264-1.057.66-1.454s.925-.66 1.454-.66c1.717 0 4.36 2.113 7.66 6.34C96.83 14.402 100 23.913 100 35.01zm-30.063 27.9h-34.7c-1.1 0-2.1-.9-2.1-2.1s.9-2.1 2.1-2.1h34.7c1.1 0 2.1.9 2.1 2.1s-.9 2.1-2.1 2.1zm-4.882-41.7c-.74-2.488-1.902-4.823-3.702-6.684-.476-.493-.987-.953-1.495-1.412-.4-.36-1.387-.944-1.593-1.428 1.05 2.468 2.1 5.03 1.308 7.735-.358 1.226-1.712 4.158-3.476 3.41-1.67-.707-1.474-4.204-1.618-5.617-.354-3.467-1.12-6.927-2.968-9.927-1.008-1.635-2.327-3.09-3.987-4.074-2.182-1.295-4.444-2.165-6.925-1.227.546-.207 1.985 1.448 2.254 1.766.87 1.032 1.594 2.252 1.982 3.55.788 2.634.1 5.635-.82 8.146-1.905 5.198-5.084 9.873-6.61 15.218-.532 1.863-.897 3.778-.997 5.715-.314 6.1 2.854 11.69 7.872 15.104 1.138.774 3.163 1.744 4.605 1.245-4.212-2.254-5.612-4.104-6.263-6.755-1.508-6.147 4.244-10.05 6.73-14.91.664-1.295 1.144-2.717.977-4.185-.062-.547-.685-3.238-1.51-3.105 2.503-.402 4.134 1.265 4.99 3.44.904 2.29 1.44 4.645 1.04 7.08-.132.817-.745 3.363.435 3.528 1.625.228 3.02-1.927 2.686-4.007a49.71 49.71 0 0 1-.34-2.448c1.725 2.127 2.507 4.255 2.76 6.59.454 4.176-1.326 9.667-4.673 13.076 1.407-1.434 3.198-2.425 4.557-3.955 1.388-1.564 2.447-3.37 3.275-5.285 1.852-4.28 2.935-9.12 2.633-13.797-.143-2.23-.468-4.57-1.128-6.788z"/>

</symbol></svg>