<svg version="1.1" viewBox="0 0 14 14" xmlns="http://www.w3.org/2000/svg">
<path d="m9.5 1.8184-1.5 1.5l3.5 3.5-3.5 3.5 1.5 1.5 4.5-5zm-5 0l-4.5 5 4.5 5 1.5-1.5-3.5-3.5 3.5-3.5z"/>
<g transform="matrix(.33709 0 0 .33709 4.3032 3.9531)">
<g transform="matrix(1.0772 0 0 1.0772 -.61799 -.65661)">
<path d="m10.555 8.094c-0.706 0.623-1.54 0.906-2.555 0.906-1.016 0-1.853-0.29-2.559-0.914-1.109 0.363-2.436 1.288-2.437 2.902l-4e-3 3.012c0 0.554 0.446 1 1 1h8c0.554 0 1-0.446 1-1v-3c0-1.387-1.102-2.556-2.445-2.906z"/>
<path d="m11 5a3 3 0 1 1 -6 0 3 3 0 1 1 6 0z" overflow="visible"/>
</g>
</g>
</svg>
