<svg width="3.92cm" height="3.92cm" viewBox="0 0 37 37" preserveAspectRatio="none" xmlns="http://www.w3.org/2000/svg">
    <path fill="#fff" d="M0 0h37v37H0z"/>
    <path d="M4 4h1v1H4zM5 4h1v1H5zM6 4h1v1H6zM7 4h1v1H7zM8 4h1v1H8zM9 4h1v1H9zM10 4h1v1h-1zM14 4h1v1h-1zM18 4h1v1h-1zM23 4h1v1h-1zM26 4h1v1h-1zM27 4h1v1h-1zM28 4h1v1h-1zM29 4h1v1h-1zM30 4h1v1h-1zM31 4h1v1h-1zM32 4h1v1h-1zM4 5h1v1H4zM10 5h1v1h-1zM13 5h1v1h-1zM17 5h1v1h-1zM23 5h1v1h-1zM24 5h1v1h-1zM26 5h1v1h-1zM32 5h1v1h-1zM4 6h1v1H4zM6 6h1v1H6zM7 6h1v1H7zM8 6h1v1H8zM10 6h1v1h-1zM12 6h1v1h-1zM15 6h1v1h-1zM19 6h1v1h-1zM23 6h1v1h-1zM26 6h1v1h-1zM28 6h1v1h-1zM29 6h1v1h-1zM30 6h1v1h-1zM32 6h1v1h-1zM4 7h1v1H4zM6 7h1v1H6zM7 7h1v1H7zM8 7h1v1H8zM10 7h1v1h-1zM13 7h1v1h-1zM16 7h1v1h-1zM17 7h1v1h-1zM20 7h1v1h-1zM22 7h1v1h-1zM26 7h1v1h-1zM28 7h1v1h-1zM29 7h1v1h-1zM30 7h1v1h-1zM32 7h1v1h-1zM4 8h1v1H4zM6 8h1v1H6zM7 8h1v1H7zM8 8h1v1H8zM10 8h1v1h-1zM13 8h1v1h-1zM16 8h1v1h-1zM17 8h1v1h-1zM20 8h1v1h-1zM21 8h1v1h-1zM22 8h1v1h-1zM23 8h1v1h-1zM24 8h1v1h-1zM26 8h1v1h-1zM28 8h1v1h-1zM29 8h1v1h-1zM30 8h1v1h-1zM32 8h1v1h-1zM4 9h1v1H4zM10 9h1v1h-1zM14 9h1v1h-1zM15 9h1v1h-1zM16 9h1v1h-1zM18 9h1v1h-1zM19 9h1v1h-1zM20 9h1v1h-1zM21 9h1v1h-1zM23 9h1v1h-1zM24 9h1v1h-1zM26 9h1v1h-1zM32 9h1v1h-1zM4 10h1v1H4zM5 10h1v1H5zM6 10h1v1H6zM7 10h1v1H7zM8 10h1v1H8zM9 10h1v1H9zM10 10h1v1h-1zM12 10h1v1h-1zM14 10h1v1h-1zM16 10h1v1h-1zM18 10h1v1h-1zM20 10h1v1h-1zM22 10h1v1h-1zM24 10h1v1h-1zM26 10h1v1h-1zM27 10h1v1h-1zM28 10h1v1h-1zM29 10h1v1h-1zM30 10h1v1h-1zM31 10h1v1h-1zM32 10h1v1h-1zM12 11h1v1h-1zM15 11h1v1h-1zM19 11h1v1h-1zM21 11h1v1h-1zM23 11h1v1h-1zM24 11h1v1h-1zM4 12h1v1H4zM5 12h1v1H5zM6 12h1v1H6zM8 12h1v1H8zM9 12h1v1H9zM10 12h1v1h-1zM11 12h1v1h-1zM12 12h1v1h-1zM16 12h1v1h-1zM20 12h1v1h-1zM21 12h1v1h-1zM24 12h1v1h-1zM25 12h1v1h-1zM26 12h1v1h-1zM30 12h1v1h-1zM4 13h1v1H4zM5 13h1v1H5zM6 13h1v1H6zM12 13h1v1h-1zM13 13h1v1h-1zM15 13h1v1h-1zM16 13h1v1h-1zM17 13h1v1h-1zM19 13h1v1h-1zM20 13h1v1h-1zM21 13h1v1h-1zM24 13h1v1h-1zM26 13h1v1h-1zM29 13h1v1h-1zM32 13h1v1h-1zM4 14h1v1H4zM9 14h1v1H9zM10 14h1v1h-1zM14 14h1v1h-1zM15 14h1v1h-1zM16 14h1v1h-1zM18 14h1v1h-1zM19 14h1v1h-1zM20 14h1v1h-1zM21 14h1v1h-1zM26 14h1v1h-1zM30 14h1v1h-1zM31 14h1v1h-1zM32 14h1v1h-1zM4 15h1v1H4zM6 15h1v1H6zM7 15h1v1H7zM11 15h1v1h-1zM13 15h1v1h-1zM14 15h1v1h-1zM16 15h1v1h-1zM17 15h1v1h-1zM18 15h1v1h-1zM20 15h1v1h-1zM21 15h1v1h-1zM22 15h1v1h-1zM23 15h1v1h-1zM24 15h1v1h-1zM25 15h1v1h-1zM28 15h1v1h-1zM31 15h1v1h-1zM4 16h1v1H4zM6 16h1v1H6zM9 16h1v1H9zM10 16h1v1h-1zM11 16h1v1h-1zM12 16h1v1h-1zM14 16h1v1h-1zM15 16h1v1h-1zM18 16h1v1h-1zM19 16h1v1h-1zM20 16h1v1h-1zM21 16h1v1h-1zM23 16h1v1h-1zM24 16h1v1h-1zM25 16h1v1h-1zM26 16h1v1h-1zM29 16h1v1h-1zM31 16h1v1h-1zM32 16h1v1h-1zM5 17h1v1H5zM7 17h1v1H7zM9 17h1v1H9zM11 17h1v1h-1zM12 17h1v1h-1zM13 17h1v1h-1zM14 17h1v1h-1zM15 17h1v1h-1zM18 17h1v1h-1zM19 17h1v1h-1zM22 17h1v1h-1zM24 17h1v1h-1zM25 17h1v1h-1zM26 17h1v1h-1zM27 17h1v1h-1zM29 17h1v1h-1zM32 17h1v1h-1zM6 18h1v1H6zM8 18h1v1H8zM9 18h1v1H9zM10 18h1v1h-1zM11 18h1v1h-1zM12 18h1v1h-1zM14 18h1v1h-1zM17 18h1v1h-1zM20 18h1v1h-1zM22 18h1v1h-1zM24 18h1v1h-1zM26 18h1v1h-1zM27 18h1v1h-1zM29 18h1v1h-1zM31 18h1v1h-1zM32 18h1v1h-1zM5 19h1v1H5zM8 19h1v1H8zM12 19h1v1h-1zM14 19h1v1h-1zM15 19h1v1h-1zM19 19h1v1h-1zM21 19h1v1h-1zM22 19h1v1h-1zM24 19h1v1h-1zM29 19h1v1h-1zM31 19h1v1h-1zM5 20h1v1H5zM6 20h1v1H6zM9 20h1v1H9zM10 20h1v1h-1zM11 20h1v1h-1zM16 20h1v1h-1zM21 20h1v1h-1zM23 20h1v1h-1zM24 20h1v1h-1zM25 20h1v1h-1zM26 20h1v1h-1zM27 20h1v1h-1zM29 20h1v1h-1zM31 20h1v1h-1zM32 20h1v1h-1zM5 21h1v1H5zM9 21h1v1H9zM13 21h1v1h-1zM14 21h1v1h-1zM15 21h1v1h-1zM16 21h1v1h-1zM17 21h1v1h-1zM21 21h1v1h-1zM22 21h1v1h-1zM26 21h1v1h-1zM29 21h1v1h-1zM30 21h1v1h-1zM32 21h1v1h-1zM4 22h1v1H4zM6 22h1v1H6zM8 22h1v1H8zM9 22h1v1H9zM10 22h1v1h-1zM13 22h1v1h-1zM15 22h1v1h-1zM16 22h1v1h-1zM18 22h1v1h-1zM20 22h1v1h-1zM21 22h1v1h-1zM22 22h1v1h-1zM24 22h1v1h-1zM27 22h1v1h-1zM31 22h1v1h-1zM32 22h1v1h-1zM5 23h1v1H5zM7 23h1v1H7zM11 23h1v1h-1zM12 23h1v1h-1zM16 23h1v1h-1zM17 23h1v1h-1zM18 23h1v1h-1zM21 23h1v1h-1zM22 23h1v1h-1zM23 23h1v1h-1zM24 23h1v1h-1zM29 23h1v1h-1zM31 23h1v1h-1zM4 24h1v1H4zM10 24h1v1h-1zM15 24h1v1h-1zM18 24h1v1h-1zM21 24h1v1h-1zM23 24h1v1h-1zM24 24h1v1h-1zM25 24h1v1h-1zM26 24h1v1h-1zM27 24h1v1h-1zM28 24h1v1h-1zM12 25h1v1h-1zM13 25h1v1h-1zM14 25h1v1h-1zM15 25h1v1h-1zM18 25h1v1h-1zM20 25h1v1h-1zM23 25h1v1h-1zM24 25h1v1h-1zM28 25h1v1h-1zM30 25h1v1h-1zM31 25h1v1h-1zM32 25h1v1h-1zM4 26h1v1H4zM5 26h1v1H5zM6 26h1v1H6zM7 26h1v1H7zM8 26h1v1H8zM9 26h1v1H9zM10 26h1v1h-1zM12 26h1v1h-1zM17 26h1v1h-1zM21 26h1v1h-1zM22 26h1v1h-1zM23 26h1v1h-1zM24 26h1v1h-1zM26 26h1v1h-1zM28 26h1v1h-1zM29 26h1v1h-1zM31 26h1v1h-1zM32 26h1v1h-1zM4 27h1v1H4zM10 27h1v1h-1zM12 27h1v1h-1zM15 27h1v1h-1zM19 27h1v1h-1zM20 27h1v1h-1zM21 27h1v1h-1zM22 27h1v1h-1zM24 27h1v1h-1zM28 27h1v1h-1zM29 27h1v1h-1zM4 28h1v1H4zM6 28h1v1H6zM7 28h1v1H7zM8 28h1v1H8zM10 28h1v1h-1zM12 28h1v1h-1zM13 28h1v1h-1zM14 28h1v1h-1zM16 28h1v1h-1zM20 28h1v1h-1zM21 28h1v1h-1zM22 28h1v1h-1zM24 28h1v1h-1zM25 28h1v1h-1zM26 28h1v1h-1zM27 28h1v1h-1zM28 28h1v1h-1zM32 28h1v1h-1zM4 29h1v1H4zM6 29h1v1H6zM7 29h1v1H7zM8 29h1v1H8zM10 29h1v1h-1zM14 29h1v1h-1zM15 29h1v1h-1zM16 29h1v1h-1zM17 29h1v1h-1zM20 29h1v1h-1zM22 29h1v1h-1zM28 29h1v1h-1zM30 29h1v1h-1zM31 29h1v1h-1zM32 29h1v1h-1zM4 30h1v1H4zM6 30h1v1H6zM7 30h1v1H7zM8 30h1v1H8zM10 30h1v1h-1zM12 30h1v1h-1zM13 30h1v1h-1zM14 30h1v1h-1zM15 30h1v1h-1zM16 30h1v1h-1zM18 30h1v1h-1zM20 30h1v1h-1zM22 30h1v1h-1zM24 30h1v1h-1zM25 30h1v1h-1zM27 30h1v1h-1zM28 30h1v1h-1zM29 30h1v1h-1zM32 30h1v1h-1zM4 31h1v1H4zM10 31h1v1h-1zM12 31h1v1h-1zM16 31h1v1h-1zM17 31h1v1h-1zM18 31h1v1h-1zM21 31h1v1h-1zM23 31h1v1h-1zM24 31h1v1h-1zM25 31h1v1h-1zM28 31h1v1h-1zM31 31h1v1h-1zM4 32h1v1H4zM5 32h1v1H5zM6 32h1v1H6zM7 32h1v1H7zM8 32h1v1H8zM9 32h1v1H9zM10 32h1v1h-1zM12 32h1v1h-1zM14 32h1v1h-1zM15 32h1v1h-1zM18 32h1v1h-1zM19 32h1v1h-1zM21 32h1v1h-1zM23 32h1v1h-1zM24 32h1v1h-1zM26 32h1v1h-1zM27 32h1v1h-1zM28 32h1v1h-1zM29 32h1v1h-1zM31 32h1v1h-1zM32 32h1v1h-1z"/>
</svg>
