<?xml version="1.0" standalone="no"?>
<!DOCTYPE svg PUBLIC "-//W3C//DTD SVG 20010904//EN"
 "http://www.w3.org/TR/2001/REC-SVG-20010904/DTD/svg10.dtd">
<svg version="1.0" xmlns="http://www.w3.org/2000/svg"
 width="700.000000pt" height="700.000000pt" viewBox="0 0 700.000000 700.000000"
 preserveAspectRatio="xMidYMid meet">
<metadata>
Created by potrace 1.11, written by Peter Selinger 2001-2013
</metadata>
<g transform="translate(0.000000,700.000000) scale(0.100000,-0.100000)"
fill="#000000" stroke="none">
<path d="M162 6983 c-57 -20 -126 -91 -146 -150 -15 -42 -16 -345 -16 -3333 0
-3686 -8 -3341 76 -3424 83 -84 -262 -76 3424 -76 3686 0 3341 -8 3424 76 84
83 76 -262 76 3424 0 3686 8 3341 -76 3424 -83 84 263 76 -3428 75 -2905 0
-3296 -2 -3334 -16z m2026 -2650 l-833 -833 833 -833 832 -832 -356 -356 -357
-357 -1066 1185 c-586 651 -1066 1188 -1066 1193 0 5 479 542 1065 1193 l1065
1185 358 -357 357 -356 -832 -832z m4637 -833 c0 -5 -475 -536 -1055 -1180
-580 -645 -1061 -1179 -1068 -1188 -12 -15 -53 23 -369 342 l-355 359 834 834
833 833 -833 833 -832 832 356 356 357 357 1066 -1185 c586 -651 1066 -1188
1066 -1193z m-3221 1035 c164 -50 286 -200 294 -363 5 -88 -10 -148 -55 -224
-107 -181 -328 -252 -508 -164 -233 115 -307 395 -156 596 103 138 275 200
425 155z m-420 -829 c88 -67 187 -96 324 -96 125 0 221 31 309 97 l32 24 75
-35 c93 -43 176 -121 212 -201 36 -79 46 -169 42 -399 -3 -176 -5 -205 -22
-232 -40 -67 -13 -64 -656 -64 -643 0 -616 -3 -656 64 -16 26 -19 56 -22 196
-5 227 8 361 40 432 35 75 122 159 212 203 39 19 73 35 75 35 2 0 18 -11 35
-24z"/>
</g>
</svg>
